#!OML:ASF \\sashay\E\basketball\basketball\Project 1\Capture day 1\Session 1\Subject.ASF
:FULLY-SPECIFIED
:DEGREES
175
root -7.31895 15.6458 4.7115 242.146 82.6928 -125.331
lowerback 19.4014 1.65993 -5.94152
upperback 9.52728 1.8754 -3.54389
thorax -0.575809 1.15632 -0.769062
lowerneck -6.76035 15.1852 -6.98593
upperneck -14.2871 21.6476 0.520852
head -4.54475 11.4074 0.722753
rclavicle -1.11319e-014 -4.29375e-014
rhumerus -45.302 27.9385 -94.2613
rradius 104.941
rwrist -30.5089
rhand -28.6089 48.2272
rfingers 7.12502
rthumb -1.974 18.2566
lclavicle -1.11319e-014 -4.29375e-014
lhumerus -29.2879 -50.467 99.1452
lradius 96.6388
lwrist 42.3451
lhand -30.6188 31.9024
lfingers 7.12502
lthumb -3.915 61.8462
rfemur -21.4808 -14.5333 19.0411
rtibia 71.0809
rfoot -6.58388 -12.2707
rtoes -43.4786
lfemur -32.2804 20.9415 -22.8047
ltibia 46.2448
lfoot -21.9367 9.48155
ltoes -6.81239
176
root -7.21452 15.6376 4.70907 231.662 82.1455 -135.541
lowerback 19.7104 1.56981 -6.16498
upperback 9.73292 1.74962 -3.40354
thorax -0.510548 1.0956 -0.476364
lowerneck -6.95695 15.4634 -7.76957
upperneck -14.5942 22.1843 1.09079
head -4.33263 11.6925 0.906701
rclavicle -4.92986e-014 -1.90833e-014
rhumerus -45.2362 28.1507 -94.1169
rradius 104.468
rwrist -30.7862
rhand -29.0644 47.8263
rfingers 7.12502
rthumb -2.41394 17.8602
lclavicle -4.92986e-014 -1.90833e-014
lhumerus -28.7363 -50.4874 99.0361
lradius 95.9241
lwrist 42.6518
lhand -29.9402 32.3794
lfingers 7.12502
lthumb -3.25973 62.3342
rfemur -23.6485 -14.2079 19.0394
rtibia 72.0354
rfoot -7.2146 -13.0437
rtoes -43.3614
lfemur -31.4492 20.31 -22.9987
ltibia 46.0868
lfoot -22.0551 8.89637
ltoes -7.53918
177
root -7.10713 15.6272 4.70974 222.869 81.4575 -144.146
lowerback 19.8377 1.50128 -6.44838
upperback 9.92797 1.65398 -3.31599
thorax -0.36183 1.04612 -0.205978
lowerneck -6.74495 15.4776 -7.64252
upperneck -15.2495 22.2048 0.706369
head -4.51434 11.7324 0.73267
rclavicle 1.59028e-015 6.99722e-014
rhumerus -45.3084 27.98 -94.1951
rradius 104.124
rwrist -30.9144
rhand -29.133 47.7072
rfingers 7.12502
rthumb -2.4802 17.7419
lclavicle 1.59028e-015 6.99722e-014
lhumerus -28.35 -50.5152 98.9259
lradius 95.3375
lwrist 43.1641
lhand -30.142 32.3746
lfingers 7.12502
lthumb -3.45454 62.3264
rfemur -25.9718 -13.6206 18.9468
rtibia 72.7449
rfoot -7.75753 -13.7224
rtoes -42.3881
lfemur -30.7592 19.8439 -23.2707
ltibia 45.9914
lfoot -22.0149 8.37444
ltoes -8.95012
178
root -7.00754 15.6095 4.71019 214.133 80.2249 -152.614
lowerback 20.4253 1.22823 -6.38476
upperback 10.0191 1.30501 -3.34879
thorax -0.54157 0.89671 -0.221669
lowerneck -6.9578 15.3711 -6.67534
upperneck -14.8964 21.9078 -0.248218
head -4.60036 11.5884 0.422253
rclavicle -3.18055e-015 2.06736e-014
rhumerus -45.8013 27.45 -94.6993
rradius 103.974
rwrist -30.8632
rhand -29.2203 47.9177
rfingers 7.12502
rthumb -2.5645 17.9534
lclavicle -3.18055e-015 2.06736e-014
lhumerus -28.2464 -50.6163 98.8121
lradius 94.8511
lwrist 43.8233
lhand -30.682 32.8831
lfingers 7.12502
lthumb -3.97609 62.8257
rfemur -28.1228 -13.37 18.6871
rtibia 73.1976
rfoot -8.38934 -14.2837
rtoes -40.9788
lfemur -30.0432 18.654 -23.4877
ltibia 45.9737
lfoot -21.9879 8.04036
ltoes -9.51298
179
root -6.90213 15.5866 4.71496 208.396 78.8427 -158.076
lowerback 21.0966 0.991715 -6.25708
upperback 9.99653 0.988993 -3.30155
thorax -0.890641 0.762947 -0.19408
lowerneck -6.94269 15.4113 -6.81264
upperneck -14.9319 22.0653 0.232453
head -4.71251 11.6655 0.568617
rclavicle -1.43125e-014 -1.74931e-014
rhumerus -46.5295 27.1153 -95.2783
rradius 103.804
rwrist -30.9033
rhand -29.3633 48.1643
rfingers 7.12502
rthumb -2.70253 18.2017
lclavicle -1.43125e-014 -1.74931e-014
lhumerus -28.3727 -50.6045 98.9236
lradius 94.2311
lwrist 44.1416
lhand -31.3019 33.187
lfingers 7.12502
lthumb -4.57468 63.1176
rfemur -30.1214 -12.9839 18.5656
rtibia 73.362
rfoot -8.94837 -14.8166
rtoes -40.1614
lfemur -29.3786 17.7196 -23.5055
ltibia 46.0196
lfoot -21.8643 7.8033
ltoes -11.5414
180
root -6.7959 15.5639 4.71539 203.92 77.2786 -162.134
lowerback 21.4533 0.785583 -6.32136
upperback 10.3321 0.767721 -2.91763
thorax -0.695263 0.654578 0.29642
lowerneck -5.68738 15.4248 -5.9879
upperneck -16.3109 21.8811 -0.914043
head -4.63431 11.5815 -0.0225596
rclavicle 3.73715e-014 2.22639e-014
rhumerus -46.4691 27.2491 -94.9338
rradius 103.466
rwrist -31.1695
rhand -29.4254 48.1076
rfingers 7.12502
rthumb -2.76255 18.1458
lclavicle 3.73715e-014 2.22639e-014
lhumerus -27.7048 -50.5157 98.9448
lradius 93.4811
lwrist 44.3487
lhand -31.4824 32.9261
lfingers 7.12502
lthumb -4.74894 62.8529
rfemur -31.83 -12.7082 18.3801
rtibia 73.2126
rfoot -9.29268 -15.172
rtoes -40.2592
lfemur -28.5631 16.8751 -23.4164
ltibia 46.0864
lfoot -21.7161 7.64383
ltoes -14.9045
181
root -6.68748 15.5464 4.7185 199.736 75.6025 -165.937
lowerback 21.9311 0.578096 -6.49699
upperback 10.5562 0.501289 -2.55366
thorax -0.671418 0.523279 0.836527
lowerneck -7.1859 15.2365 -7.05166
upperneck -15.2865 21.7781 -0.679245
head -4.6891 11.5866 0.340898
rclavicle 3.65764e-014 1.90833e-014
rhumerus -46.5077 27.4341 -94.6141
rradius 103.095
rwrist -31.3316
rhand -29.6011 48.0526
rfingers 7.12502
rthumb -2.93219 18.093
lclavicle 3.65764e-014 1.90833e-014
lhumerus -27.3702 -50.4355 99.1716
lradius 92.93
lwrist 44.655
lhand -30.8194 32.4416
lfingers 7.12502
lthumb -4.10872 62.3817
rfemur -33.4407 -12.4979 17.9301
rtibia 72.7432
rfoot -9.50856 -15.3844
rtoes -40.9318
lfemur -27.7416 15.9701 -23.4609
ltibia 46.163
lfoot -21.7603 7.18728
ltoes -16.7047
182
root -6.5725 15.532 4.72574 196.09 73.8671 -169.22
lowerback 22.485 0.304611 -6.52678
upperback 10.7395 0.168474 -2.43691
thorax -0.720116 0.37655 1.04662
lowerneck -5.64104 15.1522 -6.152
upperneck -16.8771 21.5466 -1.20792
head -4.79348 11.4645 -0.105581
rclavicle -1.90833e-014 -4.45278e-014
rhumerus -46.5527 27.3805 -94.7516
rradius 102.631
rwrist -31.3047
rhand -29.7938 48.3896
rfingers 7.12502
rthumb -3.11832 18.4327
lclavicle -1.90833e-014 -4.45278e-014
lhumerus -27.0981 -50.4737 99.0319
lradius 92.491
lwrist 44.7948
lhand -29.7963 31.935
lfingers 7.12502
lthumb -3.12077 61.8919
rfemur -34.8491 -12.2786 17.3019
rtibia 71.9425
rfoot -9.62051 -15.4546
rtoes -41.9006
lfemur -26.9177 15.1996 -23.5612
ltibia 46.2569
lfoot -21.9086 6.38207
ltoes -16.7584
183
root -6.45352 15.5095 4.73621 193.418 72.0596 -171.589
lowerback 22.9775 -0.0190148 -6.38305
upperback 10.8651 -0.20063 -2.40438
thorax -0.801845 0.219973 1.08071
lowerneck -8.24171 14.8555 -7.42193
upperneck -14.8375 21.4831 0.0233036
head -4.46564 11.459 0.738408
rclavicle 2.70347e-014 1.43125e-014
rhumerus -46.5602 27.1642 -95.0593
rradius 102.086
rwrist -31.2611
rhand -30.0741 48.753
rfingers 7.12502
rthumb -3.38903 18.8002
lclavicle 2.70347e-014 1.43125e-014
lhumerus -26.9862 -50.5441 98.8001
lradius 92.103
lwrist 44.95
lhand -29.801 32.093
lfingers 7.12502
lthumb -3.12527 62.0499
rfemur -36.1715 -12.0025 16.6999
rtibia 70.8611
rfoot -9.75061 -15.3903
rtoes -42.6217
lfemur -26.2212 14.5585 -23.572
ltibia 46.4104
lfoot -22.0604 5.50904
ltoes -16.8779
184
root -6.32819 15.4844 4.75064 191.792 70.2333 -172.942
lowerback 23.4105 -0.337455 -6.15628
upperback 10.9223 -0.55427 -2.27315
thorax -0.933228 0.0675723 1.17405
lowerneck -6.69374 14.8896 -6.37739
upperneck -15.9001 21.297 -0.97905
head -4.85894 11.355 0.103433
rclavicle -1.03368e-014 4.77083e-014
rhumerus -46.5844 27.0318 -95.2537
rradius 101.651
rwrist -31.3353
rhand -30.4365 48.3997
rfingers 7.12502
rthumb -3.73895 18.4528
lclavicle -1.03368e-014 4.77083e-014
lhumerus -26.9203 -50.554 98.6696
lradius 91.6669
lwrist 45.3687
lhand -29.7365 31.9321
lfingers 7.12502
lthumb -3.06298 61.8899
rfemur -37.3931 -11.5042 16.2125
rtibia 69.4318
rfoot -9.74102 -15.2746
rtoes -43.0218
lfemur -25.606 14.017 -23.3488
ltibia 46.6258
lfoot -22.2227 4.53868
ltoes -17.2241
185
root -6.18995 15.4673 4.75982 190.851 68.6159 -173.641
lowerback 23.6764 -0.586377 -5.86179
upperback 10.9845 -0.794674 -2.13602
thorax -0.987242 -0.0312905 1.21159
lowerneck -6.3358 14.7444 -6.07863
upperneck -16.3281 21.0665 -1.27352
head -4.99932 11.2491 -0.074126
rclavicle 1.11319e-014 7.95139e-015
rhumerus -46.5717 26.8635 -95.4372
rradius 101.304
rwrist -31.5841
rhand -30.4667 47.8056
rfingers 7.12502
rthumb -3.76817 17.8591
lclavicle 1.11319e-014 7.95139e-015
lhumerus -26.7727 -50.5831 98.4627
lradius 91.1381
lwrist 45.6626
lhand -27.2687 30.0101
lfingers 7.12502
lthumb -0.679626 59.9888
rfemur -38.4388 -10.7024 15.7126
rtibia 67.5999
rfoot -9.2204 -14.9234
rtoes -43.3642
lfemur -25.0193 13.7661 -22.9957
ltibia 46.8898
lfoot -22.3663 3.55473
ltoes -17.9615
186
root -6.049 15.4621 4.76733 189.816 66.9221 -174.561
lowerback 24.0311 -0.789174 -5.65886
upperback 10.8376 -1.035 -1.99552
thorax -1.31276 -0.133427 1.30721
lowerneck -6.28519 14.6217 -6.00748
upperneck -16.2855 20.907 -1.22042
head -4.98413 11.1645 -0.0612681
rclavicle 1.82882e-014 1.90833e-014
rhumerus -47.0474 26.4085 -95.8172
rradius 100.978
rwrist -31.7155
rhand -30.0261 47.8143
rfingers 7.12502
rthumb -3.34262 17.8608
lclavicle 1.82882e-014 1.90833e-014
lhumerus -27.3457 -50.6387 98.8213
lradius 90.6923
lwrist 45.5761
lhand -27.1675 30.5324
lfingers 7.12502
lthumb -0.58191 60.5113
rfemur -39.3206 -9.982 14.9824
rtibia 65.4206
rfoot -8.38517 -14.2934
rtoes -43.8967
lfemur -24.5844 13.6192 -22.7877
ltibia 47.186
lfoot -22.4192 2.38108
ltoes -18.4011
187
root -5.90598 15.4634 4.77527 189.05 65.1013 -175.149
lowerback 24.7688 -1.04719 -5.2897
upperback 10.45 -1.36808 -1.86337
thorax -2.09214 -0.270657 1.33116
lowerneck -7.70432 14.4617 -6.85565
upperneck -15.0151 20.8999 -0.118244
head -4.50436 11.1516 0.590904
rclavicle 5.32743e-014 3.10104e-014
rhumerus -48.126 25.8163 -96.5473
rradius 100.737
rwrist -31.5052
rhand -29.7233 48.1543
rfingers 7.12502
rthumb -3.05027 18.1964
lclavicle 5.32743e-014 3.10104e-014
lhumerus -28.5584 -50.5938 99.5758
lradius 90.3425
lwrist 45.534
lhand -26.9776 30.0663
lfingers 7.12502
lthumb -0.398466 60.0457
rfemur -39.898 -9.24214 14.2298
rtibia 62.9212
rfoot -7.54131 -13.3737
rtoes -44.5347
lfemur -24.1409 13.5258 -22.407
ltibia 47.5067
lfoot -22.3815 0.719272
ltoes -16.7496
188
root -5.75521 15.4608 4.78705 188.987 63.2948 -174.938
lowerback 24.7343 -1.23798 -5.197
upperback 10.6584 -1.51526 -1.24172
thorax -1.82004 -0.352014 1.98455
lowerneck -6.06906 14.4075 -5.83054
upperneck -16.1213 20.5813 -1.28
head -4.9173 10.9884 -0.0943363
rclavicle 5.32743e-014 3.02153e-014
rhumerus -48.1398 25.8381 -96.174
rradius 100.449
rwrist -31.5342
rhand -29.8331 48.6515
rfingers 7.12502
rthumb -3.1563 18.6951
lclavicle 5.32743e-014 3.02153e-014
lhumerus -27.861 -50.3333 99.4912
lradius 89.7826
lwrist 45.8863
lhand -26.5756 29.5105
lfingers 7.12502
lthumb -0.0101524 59.4902
rfemur -40.2804 -8.28695 13.7062
rtibia 60.1752
rfoot -6.58433 -12.2196
rtoes -45.0342
lfemur -23.7619 13.6758 -21.6445
ltibia 47.9363
lfoot -22.1703 -1.00676
ltoes -14.7386
